# xmcd CD database file
#
# Track frame offsets:
#	183
#	19293
#	33893
#	54858
#	70313
#	87838
#	104068
#	119173
#	156305
#	194318
#
# Disc length: 3249 seconds
#
# Revision: 0
# Processed by: cddbd v1.5PL3 Copyright (c) Steve Scherf et al.
# Submitted via: CDex 1.51
#
DISCID=890caf0a
DTITLE=Miles Davis - Compilation
DYEAR=1900
DGENRE=Jazz
TTITLE0=Dear old Stockholm
TTITLE1=Donna
TTITLE2=How deep is the ocean
TTITLE3=Enigma
TTITLE4=Tempus fugit
TTITLE5=C.T.A.
TTITLE6=Kelo
TTITLE7=Somethin' else
TTITLE8=One for Daddy-O
TTITLE9=Autumn leaves
EXTD=
EXTT0=
EXTT1=
EXTT2=
EXTT3=
EXTT4=
EXTT5=
EXTT6=
EXTT7=
EXTT8=
EXTT9=
PLAYORDER=
